<?xml version="1.0" encoding="iso-8859-1"?>
<!-- Generator: Adobe Illustrator 24.2.0, SVG Export Plug-In . SVG Version: 6.00 Build 0)  -->
<svg version="1.1" id="&#x5716;&#x5C64;_1" xmlns="http://www.w3.org/2000/svg" xmlns:xlink="http://www.w3.org/1999/xlink" x="0px"
	 y="0px" viewBox="0 0 283.465 283.466" style="enable-background:new 0 0 283.465 283.466;" xml:space="preserve">
<g>
	
		<ellipse transform="matrix(0.7071 -0.7071 0.7071 0.7071 -58.708 141.7326)" style="fill:#D83182;" cx="141.732" cy="141.733" rx="141.732" ry="141.733"/>
	<g>
		<g>
			<path style="fill-rule:evenodd;clip-rule:evenodd;fill:#FFFFFF;" d="M142.551,122.378c0.148,0.006,0.294-0.008,0.441-0.008
				c3.634,0,7.267,0,10.901,0.003c0.258,0,0.86,0.005,0.86,0.005c0,0.397,0,0.832,0,1.17c0,14.973,0.007,29.945-0.014,44.921
				c-0.001,1.668-0.276,3.301-0.965,4.858c-0.914,2.067-2.447,3.48-4.507,4.291c-1.437,0.565-2.954,0.89-4.528,0.769
				c-0.539-0.038-1.08-0.005-1.621,0c-0.237,0.003-0.462,0.07-0.467,0.355c-0.014,0.727-0.005,1.456-0.005,2.239
				c0.411,0.018,0.725,0.044,1.037,0.044c11.364,0.002,22.729,0.002,34.094,0.006c0.22,0,0.442-0.011,0.663,0.004
				c0.371,0.021,0.541-0.141,0.533-0.518c-0.01-0.541,0.008-1.081-0.004-1.62c-0.01-0.445-0.078-0.516-0.517-0.52
				c-0.762-0.007-1.521,0-2.285,0.006c-1.707,0.014-3.301-0.476-4.774-1.253c-2.16-1.139-3.39-3.015-4.018-5.351
				c-0.311-1.163-0.313-2.335-0.318-3.506c-0.022-4.493-0.008-8.983-0.008-13.476c0-7.119,0.001-14.235-0.005-21.354
				c0-0.475,0.046-0.903,0.353-1.313c1.477-1.971,3.319-3.528,5.386-4.826c0.745-0.465,1.563-0.803,2.325-1.236
				c1.301-0.738,2.725-1.037,4.174-1.261c0.19-0.026,0.392,0.011,0.584,0.048c1.036,0.19,1.791,0.758,2.225,1.722
				c0.951,2.109,2.638,3.321,4.841,3.762c2.402,0.48,4.622-0.035,6.529-1.63c1.091-0.914,1.961-2.035,2.34-3.398
				c0.747-2.68,0.316-5.19-1.405-7.427c-0.577-0.752-1.337-1.285-2.175-1.694c-0.791-0.391-1.606-0.732-2.52-0.741
				c-0.165,0-0.333-0.09-0.501-0.099c-0.705-0.042-1.434-0.187-2.12-0.078c-1.275,0.208-2.587,0.207-3.831,0.65
				c-0.96,0.346-1.977,0.539-2.923,0.914c-1.267,0.502-2.512,1.077-3.733,1.69c-1.004,0.506-2.021,1.027-2.917,1.694
				c-1.765,1.316-3.451,2.739-5.169,4.122c-0.411,0.333-0.884,0.684-1.408,1.129c-0.055-0.369-0.044-0.597-0.044-0.822
				c0-3.02,0.008-6.039,0.011-9.057c0-0.16-0.051-0.317-0.083-0.502c-0.124,0.046-0.203,0.055-0.25,0.099
				c-1.786,1.637-3.728,2.218-6.411,2.663c-0.145,0.025-2.855,0.391-4.126,0.393c-4.296,0.022-8.592,0.011-12.888,0.01
				c-0.221,0-0.441,0-0.661-0.01c-0.339-0.014-0.495,0.141-0.495,0.481c0.004,1.08-0.002,2.16-0.009,3.241
				C142.143,122.245,142.289,122.37,142.551,122.378z"/>
			<path style="fill-rule:evenodd;clip-rule:evenodd;fill:#FFFFFF;" d="M210.896,110.445c0.234,0.479,0.454,0.61,1.005,0.466
				c0.702-0.183,1.388-0.439,2.076-0.672c1.318-0.442,2.63-0.893,3.948-1.328c0.902-0.296,1.814-0.56,2.711-0.859
				c1.457-0.489,2.903-1.008,4.36-1.498c0.848-0.288,1.716-0.532,2.57-0.818c1.409-0.475,2.806-0.975,4.216-1.451
				c0.83-0.284,1.725-0.432,2.494-0.827c1.88-0.961,2.748-2.629,2.955-4.675c0.049-0.851-0.271-1.61-0.618-2.325
				c-0.914-1.881-2.46-2.851-4.562-2.902c-1.125-0.027-2.156,0.212-3.089,0.912c-1.45,1.087-2.947,2.108-4.422,3.159
				c-2.029,1.449-4.058,2.901-6.087,4.348c-1.691,1.212-3.386,2.416-5.076,3.625c-1.018,0.729-2.027,1.46-3.035,2.202
				c-0.439,0.323-0.471,0.483-0.234,0.994C210.365,109.35,210.626,109.899,210.896,110.445z"/>
			<path style="fill-rule:evenodd;clip-rule:evenodd;fill:#FFFFFF;" d="M95.344,122.646c0.124,0.005,0.246,0,0.37,0
				c2.699,0,5.397,0,8.099,0.005c0.847,0,0.892,0.053,0.892,0.862c0,14.945-0.001,29.894,0.008,44.842
				c0,0.585,0.079,1.169,0.146,1.752c0.183,1.636,0.527,3.217,1.27,4.713c0.737,1.494,1.682,2.817,2.916,3.923
				c1.137,1.016,2.405,1.842,3.781,2.513c1.187,0.58,2.414,1.042,3.69,1.36c0.856,0.212,1.724,0.397,2.599,0.505
				c1.721,0.214,3.164,0.281,4.472,0.1c1.954-0.27,3.881-0.688,5.764-1.36c1.79-0.64,3.466-1.447,5.035-2.503
				c1.883-1.261,3.308-2.825,4.442-4.787c0.301-0.519,0.735-1.309,0.805-1.746c-0.331-0.283-0.682-0.58-1.061-0.901
				c-0.221,0.194-0.409,0.342-0.584,0.512c-0.906,0.904-1.891,1.696-3.089,2.194c-0.382,0.161-0.748,0.357-1.135,0.508
				c-1.236,0.476-2.81,0.906-4.141,0.951c-1.732,0.059-2.971,0.113-4.695,0.032c-1.083-0.05-2.023-0.39-2.923-0.872
				c-2.496-1.354-3.716-3.672-4.412-6.288c-0.34-1.273-0.441-2.605-0.397-3.943c0.044-1.298,0.012-2.597,0.012-3.9
				c0-12.638,0-25.28,0.001-37.922c0-0.812,0.006-0.812,0.813-0.82c0.125,0,0.246-0.002,0.368-0.002
				c4.981,0,9.964,0.002,14.949,0.002c0.734,0.003,0.747-0.008,0.748-0.724c0-0.884,0.003-1.767-0.001-2.65
				c-0.006-0.746-0.011-0.742-0.72-0.742c-5.13,0.003-10.263,0.003-15.389-0.001c-0.748,0-0.772-0.033-0.772-0.805
				c0-7.731,0.002-15.462,0.002-23.193c0-0.171-0.005-0.345,0.007-0.518c0.019-0.383-0.17-0.518-0.535-0.518
				c-1.571,0.01-3.144-0.001-4.712,0.01c-0.505,0.005-0.559,0.097-0.573,0.623c-0.037,1.102-0.044,2.206-0.138,3.307
				c-0.165,1.944-1.042,7.615-1.579,9.078c-0.426,1.156-0.766,2.322-1.3,3.412c-0.911,1.856-2.087,3.541-3.644,4.932
				c-3.164,2.833-6.981,3.51-9.212,3.669c-0.238,0.02-0.477,0.026-0.823,0.049c0,0.484,0,0.918,0,1.353
				c-0.004,0.785-0.014,1.572,0,2.355C94.706,122.577,94.769,122.627,95.344,122.646z"/>
			<path style="fill-rule:evenodd;clip-rule:evenodd;fill:#FFFFFF;" d="M19.131,186.597c0,1.22,0,2.384,0,3.646
				c0.356,0,0.692,0,1.024,0c75.576,0,151.154,0,226.731,0.001c5.522,0,11.047,0.001,16.567-0.005c0.307,0,0.612-0.04,0.881-0.062
				c0-1.239,0-2.379,0-3.58C182.577,186.597,100.884,186.597,19.131,186.597z"/>
		</g>
		<path style="fill-rule:evenodd;clip-rule:evenodd;fill:#FFFFFF;" d="M252.33,164.678c-0.177-0.079-0.356-0.159-0.52-0.264
			c-0.272-0.176-0.466-0.067-0.624,0.155c-0.069,0.101-0.107,0.221-0.166,0.328c-0.687,1.245-1.442,2.442-2.358,3.532
			c-0.96,1.146-1.974,2.237-3.139,3.196c-1.024,0.846-2.064,1.651-3.243,2.256c-0.953,0.488-1.901,0.995-2.893,1.393
			c-0.834,0.339-1.715,0.595-2.598,0.776c-0.982,0.197-1.43,0.383-2.985,0.397c-1.554,0.014-3.477-0.266-4.857-0.637
			c-1.763-0.47-3.419-1.177-4.953-2.137c-1.962-1.227-3.717-2.722-5.263-4.451c-1.275-1.428-2.385-2.978-3.3-4.663
			c-0.442-0.812-0.881-1.633-1.23-2.49c-0.492-1.215-0.929-2.455-1.338-3.704c-0.231-0.717-0.36-1.465-0.538-2.204
			c-0.039-0.165-0.085-0.329-0.126-0.495c-0.105-0.423-0.221-0.845-0.309-1.27c-0.07-0.336-0.097-0.678-0.145-1.019
			c-0.176-1.262-0.455-2.519-0.508-3.787c-0.1-2.302-0.069-4.611-0.086-6.918c-0.003-0.713,0.041-0.745,0.748-0.759
			c0.245-0.004,0.492,0,0.737,0c6.356,0,12.715,0,19.072,0v-0.003c6.577,0,13.155,0,19.734,0c0.147,0,0.296,0.009,0.44,0.003
			c0.304-0.019,0.435-0.176,0.4-0.485c-0.031-0.29-0.05-0.586-0.055-0.88c-0.046-2.826-0.402-5.604-1.167-8.334
			c-0.329-1.175-0.703-2.327-1.136-3.472c-0.993-2.616-2.432-4.952-4.249-7.064c-1.126-1.308-2.392-2.468-3.854-3.389
			c-1.131-0.716-2.271-1.445-3.486-1.995c-0.213-0.095-0.428-0.183-0.643-0.267c-0.058-0.024-0.112-0.046-0.17-0.067
			c-0.011-0.007-0.023-0.01-0.033-0.017c-3.116-1.282-6.852-2.033-10.868-2.033c-6.153,0-11.646,1.758-15.256,4.507
			c-0.475,0.31-0.941,0.628-1.393,0.967c-1.071,0.808-2.038,1.761-3.002,2.698c-1.288,1.253-2.351,2.695-3.324,4.198
			c-0.503,0.776-0.946,1.596-1.377,2.416c-0.462,0.887-0.891,1.79-1.302,2.703c-0.312,0.686-0.6,1.387-0.842,2.1
			c-0.247,0.738-0.446,1.498-0.632,2.253c-0.323,1.329-0.696,2.648-0.914,3.993c-0.282,1.74-0.506,3.498-0.63,5.255
			c-0.124,1.785-0.123,3.577-0.129,5.367c-0.004,0.733,0.108,1.465,0.183,2.195c0.061,0.608,0.143,1.217,0.227,1.823
			c0.126,0.898,0.225,1.804,0.409,2.689c0.2,0.951,0.468,1.89,0.738,2.823c0.262,0.915,0.528,1.829,0.858,2.721
			c0.27,0.73,0.609,1.439,0.961,2.138c0.656,1.306,1.276,2.635,2.031,3.88c1.051,1.742,2.276,3.369,3.67,4.859
			c1.679,1.794,3.486,3.445,5.516,4.832c1.657,1.133,3.403,2.091,5.271,2.853c1.38,0.561,2.786,1.058,4.238,1.355
			c2.061,0.417,4.14,0.809,6.264,0.781c1.35-0.019,2.71,0.071,4.044-0.091c2.229-0.269,4.453-0.633,6.557-1.492
			c0.7-0.286,1.422-0.533,2.09-0.879c0.955-0.494,1.886-1.035,2.795-1.607c1.819-1.148,3.37-2.602,4.729-4.265
			c1.321-1.616,2.387-3.386,3.147-5.338c0.426-1.092,0.896-2.165,1.032-3.348c0.022-0.192,0.079-0.385,0.145-0.567
			C252.988,165.019,252.977,164.983,252.33,164.678z M239.212,135.295c-0.121,0.01-0.245,0.004-0.366,0.004
			c-4.315,0-8.635,0-12.952,0c-4.268-0.001-8.535-0.001-12.802-0.001c-0.173,0-0.347,0.014-0.516-0.011
			c-0.319-0.045-0.488-0.244-0.433-0.564c0.25-1.392,0.312-2.809,0.775-4.175c0.376-1.111,0.758-2.218,1.297-3.246
			c0.93-1.758,2.079-3.347,3.65-4.632c1.037-0.847,2.155-1.522,3.369-2.031c0.689-0.291,1.435-0.45,2.172-0.597
			c0.766-0.158,1.543-0.271,2.322-0.332c0.979-0.079,1.947,0.014,2.921,0.213c0.812,0.163,1.634,0.273,2.407,0.578
			c0.981,0.387,1.907,0.885,2.757,1.509c1.991,1.466,3.314,3.437,4.249,5.687c0.336,0.81,0.692,1.621,0.891,2.468
			c0.265,1.134,0.798,3.873,0.858,4.575C239.859,135.285,239.768,135.251,239.212,135.295z"/>
		<path style="fill:#FFFFFF;" d="M96.761,174.707c-0.094,0.041-0.148,0.05-0.18,0.079c-0.115,0.096-0.229,0.19-0.323,0.301
			c-1.198,1.382-2.687,2.159-4.526,2.261c-1.392,0.076-2.734,0.009-3.965-0.762c-1.086-0.684-1.704-1.692-1.95-2.897
			c-0.158-0.785-0.157-1.612-0.158-2.42c-0.007-13.204-0.006-26.411-0.003-39.613c0-0.197,0.018-0.399-0.013-0.59
			c-0.326-1.923-0.556-3.857-1.388-5.673c-0.669-1.456-1.471-2.815-2.474-4.058c-1.087-1.346-2.383-2.477-3.811-3.432
			c-0.931-0.625-1.922-1.18-2.951-1.621c-1.205-0.519-2.461-0.941-3.726-1.295c-1.434-0.397-2.887-0.797-4.358-0.969
			c-1.993-0.233-4.012-0.34-6.02-0.34c-2.201,0.002-5.332,0.192-6.564,0.357c-1.227,0.158-2.455,0.459-3.477,0.702
			c-1.573,0.372-3.089,0.941-4.549,1.611c-1.484,0.683-2.881,1.545-4.175,2.565c-3.001,2.36-5.172,5.269-5.941,9.067
			c-0.553,2.732-0.407,5.432,1.03,7.906c1.286,2.218,3.286,3.446,5.828,3.728c1.384,0.153,2.709-0.155,3.966-0.788
			c1.211-0.61,2.19-1.462,2.952-2.58c0.645-0.946,1.064-2.018,1.222-3.109c0.152-1.062,0.126-2.156-0.293-3.25
			c-0.445-1.164-0.958-2.237-1.832-3.124c-0.465-0.472-0.98-0.891-1.412-1.387c-0.979-1.115-1.092-1.947-0.222-3.168
			c0.277-0.39,0.671-0.715,1.065-1.003c0.952-0.69,2.038-1.138,3.147-1.51c0.55-0.185,2.259-0.663,3.125-0.764
			c1.242-0.151,2.488-0.26,3.738-0.293c2.429-0.067,4.845,0.111,7.189,0.787c1.704,0.49,3.266,1.31,4.628,2.449
			c1.819,1.524,2.932,3.534,3.54,5.788c0.302,1.12,0.398,2.321,0.418,3.491c0.031,2.14,0.031,4.277,0.024,6.417h-0.029v4.513
			c-0.023,0.16-0.08,0.249-0.218,0.314c-3.718,0.568-18.633,3.001-25.895,5.989c-7.85,3.233-15.899,8.679-15.647,20.018
			c-0.011,0.123-0.017,0.245-0.012,0.368c0.017,0.618,0.075,1.227,0.179,1.827c0.011,0.082,0.025,0.161,0.042,0.239
			c0.015,0.082,0.033,0.161,0.051,0.241c0.237,1.176,0.654,2.187,1.192,3.048c0.788,1.347,1.823,2.507,3.009,3.536
			c1.068,0.929,2.251,1.707,3.482,2.43c1.885,1.109,3.881,1.943,6,2.438c1.499,0.349,3.04,0.574,4.574,0.716
			c2.256,0.209,4.509-0.011,6.739-0.398c1.515-0.263,3.013-0.618,4.467-1.122c0.738-0.255,1.49-0.483,2.195-0.812
			c1.104-0.519,2.189-1.081,3.252-1.682c1.99-1.129,3.767-2.545,5.368-4.178c0.354-0.358,0.671-0.755,1.101-1.239
			c0.158,0.506,0.312,0.908,0.413,1.322c0.331,1.38,0.979,2.602,1.893,3.676c1.837,2.154,4.208,3.346,6.974,3.854
			c2.947,0.545,5.798,0.307,8.543-0.917c0.643-0.285,1.278-0.627,1.852-1.033c1.474-1.05,2.689-2.357,3.577-3.942
			c0.214-0.375,0.358-0.785,0.539-1.196C97.52,175.256,97.13,174.972,96.761,174.707z M73.97,167.256
			c-1.429,1.621-3.008,3.075-4.789,4.306c-0.981,0.679-1.947,1.405-2.988,1.988c-1.016,0.566-2.081,1.078-3.188,1.445
			c-2.737,0.901-4.816,1.093-6.151,1.111c-1.627,0.024-3.117-0.434-4.606-1.033c-1.271-0.511-2.394-1.224-3.417-2.101
			c-0.896-0.772-1.64-1.68-2.185-2.739c-0.302-0.581-0.616-1.158-0.868-1.763c-0.689-1.667-0.88-3.425-0.581-5.182
			c0.201-1.193,0.683-2.315,1.339-3.375c1.482-2.388,3.595-4.03,6.019-5.341c1.484-0.804,3.051-1.392,4.646-1.951
			c1.796-0.632,12.346-3.362,17.097-3.532v17.516C74.253,166.85,74.143,167.06,73.97,167.256z"/>
	</g>
</g>
</svg>
